<svg xmlns="http://www.w3.org/2000/svg" xmlns:xlink="http://www.w3.org/1999/xlink" version="1.1" id="Capa_1" x="0px" y="0px" viewBox="0 0 24 24" style="enable-background:new 0 0 24 24;" xml:space="preserve" width="300" height="300" xmlns:svgjs="http://svgjs.dev/svgjs"><rect width="24" height="24" rx="4.8" ry="4.8" shape="true" transform="matrix(0.88,0,0,0.88,1.4399999999999995,1.4399999999999995)" fill="#ffffffff"/><g transform="matrix(-1,0,0,1,24,0)"><g>
	<path d="M0,17.725l2.031,3.504l0,0c0.396,0.793,1.222,1.335,2.169,1.335l0,0l0,0h13.457l-2.792-4.839H0z" fill="#f92139ff" data-original-color="#000000ff" stroke="none"/>
	<path d="M24,17.749c0-0.485-0.146-0.939-0.388-1.311L15.73,2.723c-0.405-0.769-1.214-1.287-2.144-1.287H9.419l12.178,21.103   l1.918-3.326C23.903,18.575,24,18.299,24,17.749z" fill="#f92139ff" data-original-color="#000000ff" stroke="none"/>
	<polygon points="12.874,14.286 7.428,4.851 1.982,14.286  " fill="#f92139ff" data-original-color="#000000ff" stroke="none"/>
</g></g></svg>